<svg width="40" height="40" viewBox="0 0 40 40" fill="none" xmlns="http://www.w3.org/2000/svg">
<circle cx="20" cy="20" r="20" fill="#379237"/>
<path d="M13 30V28H19V24H17C15.6167 24 14.4373 23.5123 13.462 22.537C12.4867 21.5617 11.9993 20.3827 12 19C12 18 12.275 17.079 12.825 16.237C13.375 15.395 14.1167 14.7827 15.05 14.4C15.2 13.15 15.746 12.104 16.688 11.262C17.63 10.42 18.734 9.99933 20 10C21.2667 10 22.371 10.421 23.313 11.263C24.255 12.105 24.8007 13.1507 24.95 14.4C25.8833 14.7833 26.625 15.396 27.175 16.238C27.725 17.08 28 18.0007 28 19C28 20.3833 27.5123 21.5627 26.537 22.538C25.5617 23.5133 24.3827 24.0007 23 24H21V28H27V30H13Z" fill="white"/>
</svg>
