<svg width="76" height="76" viewBox="0 0 76 76" fill="none" xmlns="http://www.w3.org/2000/svg">
<rect width="76" height="76" rx="10" fill="#379237"/>
<path d="M50.3526 28.529C51.0006 26.7365 49.2636 24.9995 47.4711 25.649L25.5636 33.572C23.7651 34.223 23.5476 36.677 25.2021 37.6355L32.1951 41.684L38.4396 35.4395C38.7225 35.1663 39.1014 35.0151 39.4947 35.0185C39.888 35.0219 40.2642 35.1797 40.5423 35.4578C40.8204 35.7359 40.9782 36.1121 40.9816 36.5054C40.985 36.8987 40.8338 37.2776 40.5606 37.5605L34.3161 43.805L38.3661 50.798C39.3231 52.4525 41.7771 52.2335 42.4281 50.4365L50.3526 28.529Z" fill="white"/>
</svg>
