<svg width="252" height="87" viewBox="0 0 252 87" fill="none" xmlns="http://www.w3.org/2000/svg">
<path d="M23.4229 0C14.1581 11.2249 6.45535 32.5601 32.1956 47.2049C40.3879 38.7311 50.1784 17.8351 23.4229 0Z" fill="#229E56" fill-opacity="0.84"/>
<path d="M0 49.6211C5.33584 56.1531 16.5947 62.9372 27.8216 49.9571C23.9286 44.345 13.1547 36.4236 0 49.6211Z" fill="#229E56" fill-opacity="0.78"/>
<path d="M8.86252 71.5798C17.2774 72.1518 29.9259 68.5738 28.1293 51.5063C21.3722 50.5103 8.22536 52.9569 8.86252 71.5798Z" fill="#229E56" fill-opacity="0.74"/>
<path d="M3.80763 24.7066C3.5587 35.6271 8.69554 51.6736 30.8953 50.4306C31.7967 41.696 28.1091 25.0734 3.80763 24.7066Z" fill="#229E56" fill-opacity="0.78"/>
<path d="M19.1142 47.4381L36.4177 46.675H44.9177C28.7663 49.0084 25.8457 53.9069 31.0526 68.7196L23.7858 62.2314L19.1142 47.4381Z" fill="#FFFEFE"/>
<path d="M32.6963 45.8809L26.3811 26.9352C24.4778 26.1566 22.2286 22.0041 25.6025 20.1874C27.4192 19.2091 31.4678 20.2393 30.0145 25.6375L40.8953 45.8809H61.4177L21.7095 48.4762C23.0936 59.982 33.1288 80.3985 61.4177 71.834C47.403 81.9557 17.557 73.3911 17.557 45.8809H32.6963Z" fill="#02421F"/>
<path d="M76.8257 74.299C75.2577 74.299 73.8017 74.075 72.4577 73.627C71.1457 73.147 70.0897 72.491 69.2897 71.659C68.4897 70.827 68.0897 69.851 68.0897 68.731C68.0897 67.995 68.2657 67.355 68.6177 66.811C68.9697 66.235 69.4497 65.947 70.0577 65.947C70.4417 65.947 70.8417 66.091 71.2577 66.379C72.0577 67.083 73.0817 67.707 74.3297 68.251C75.6097 68.763 76.9697 69.019 78.4097 69.019C80.2977 69.019 81.8337 68.651 83.0177 67.915C84.2337 67.147 84.8417 66.123 84.8417 64.843C84.8417 63.627 84.2817 62.747 83.1617 62.203C82.0417 61.659 80.4897 61.147 78.5057 60.667C77.0337 60.315 75.6097 59.867 74.2337 59.323C72.8897 58.779 71.7697 58.027 70.8737 57.067C70.0097 56.075 69.5777 54.763 69.5777 53.131C69.5777 51.883 69.8497 50.651 70.3937 49.435C70.9377 48.187 71.7377 47.051 72.7937 46.027C73.8497 45.003 75.1297 44.187 76.6337 43.579C78.1377 42.939 79.8337 42.619 81.7217 42.619C83.1297 42.619 84.4097 42.779 85.5617 43.099C86.7457 43.419 87.6737 43.867 88.3457 44.443C89.0497 45.019 89.4017 45.723 89.4017 46.555C89.4017 47.195 89.2257 47.755 88.8737 48.235C88.5217 48.715 88.1057 49.099 87.6257 49.387C87.1457 49.643 86.7297 49.771 86.3777 49.771C86.0577 49.771 85.6257 49.627 85.0817 49.339C84.1857 48.859 83.1777 48.491 82.0577 48.235C80.9697 47.947 80.0097 47.803 79.1777 47.803C77.6097 47.803 76.3297 48.155 75.3377 48.859C74.3777 49.531 73.8977 50.331 73.8977 51.259C73.8977 52.283 74.5057 53.147 75.7217 53.851C76.9697 54.523 79.1937 55.243 82.3937 56.011C84.5697 56.587 86.2657 57.387 87.4817 58.411C88.6977 59.403 89.3057 60.987 89.3057 63.163C89.3057 65.115 88.7777 66.939 87.7217 68.635C86.6977 70.331 85.2417 71.707 83.3537 72.763C81.4977 73.787 79.3217 74.299 76.8257 74.299Z" fill="#02421F"/>
<path d="M98.9125 74.299C96.9925 74.299 95.4405 73.707 94.2565 72.523C93.1045 71.307 92.5285 69.579 92.5285 67.339C92.5285 65.739 92.8325 64.155 93.4405 62.587C94.0805 60.987 94.9925 59.547 96.1765 58.267C97.3605 56.987 98.7845 55.963 100.448 55.195C102.112 54.427 103.984 54.043 106.064 54.043C107.984 54.043 109.616 54.379 110.96 55.051C112.336 55.691 113.024 56.571 113.024 57.691C113.024 57.979 112.992 58.363 112.928 58.843C112.864 59.291 112.784 59.659 112.688 59.947C112.592 60.203 112.448 60.443 112.256 60.667C112.096 60.859 111.872 60.955 111.584 60.955C111.456 60.955 111.216 60.907 110.864 60.811C110.736 61.483 110.64 62.139 110.576 62.779C110.512 63.419 110.48 64.059 110.48 64.699C110.48 65.915 110.656 67.003 111.008 67.963C111.392 68.891 112.128 69.467 113.216 69.691C113.504 69.755 113.728 69.851 113.888 69.979C114.08 70.107 114.176 70.379 114.176 70.795C114.176 71.147 114.08 71.595 113.888 72.139C113.728 72.683 113.392 73.179 112.88 73.627C112.4 74.043 111.696 74.251 110.768 74.251C109.52 74.251 108.56 73.803 107.888 72.907C107.216 71.979 106.88 70.667 106.88 68.971C106.016 70.539 104.912 71.819 103.568 72.811C102.256 73.803 100.704 74.299 98.9125 74.299ZM100.448 69.307C101.728 69.307 102.848 68.907 103.808 68.107C104.8 67.307 105.568 66.299 106.112 65.083C106.464 64.315 106.736 63.483 106.928 62.587C107.12 61.659 107.248 60.747 107.312 59.851C106.768 59.595 106.144 59.387 105.44 59.227C104.736 59.067 104 58.987 103.232 58.987C101.28 58.987 99.6645 59.563 98.3845 60.715C97.1365 61.867 96.5125 63.307 96.5125 65.035C96.5125 66.315 96.8645 67.355 97.5685 68.155C98.2725 68.923 99.2325 69.307 100.448 69.307Z" fill="#02421F"/>
<path d="M119.836 74.203C118.684 74.203 118.172 73.819 118.3 73.051C118.652 71.675 118.94 70.283 119.164 68.875C119.42 67.435 119.548 66.059 119.548 64.747C119.548 63.051 119.436 61.819 119.212 61.051C119.02 60.251 118.748 59.707 118.396 59.419C118.044 59.099 117.612 58.859 117.1 58.699C116.876 58.603 116.668 58.475 116.476 58.315C116.316 58.155 116.236 57.931 116.236 57.643C116.236 57.195 116.412 56.699 116.764 56.155C117.116 55.611 117.612 55.147 118.252 54.763C118.924 54.347 119.676 54.139 120.508 54.139C121.596 54.139 122.348 54.523 122.764 55.291C123.18 56.027 123.388 57.003 123.388 58.219C123.388 59.019 123.308 59.915 123.148 60.907C122.988 61.899 122.828 62.795 122.668 63.595L122.812 63.643C123.452 61.947 124.22 60.379 125.116 58.939C126.044 57.467 127.116 56.283 128.332 55.387C129.548 54.491 130.956 54.043 132.556 54.043C134.252 54.043 135.548 54.555 136.444 55.579C137.34 56.603 137.788 57.883 137.788 59.419C137.788 60.059 137.708 60.667 137.548 61.243C137.42 61.819 137.276 62.379 137.116 62.923C136.956 63.435 136.812 63.963 136.684 64.507C136.588 65.051 136.54 65.595 136.54 66.139C136.54 67.963 137.404 69.195 139.132 69.835C139.58 70.027 139.804 70.315 139.804 70.699C139.804 70.987 139.708 71.403 139.516 71.947C139.324 72.491 138.972 73.003 138.46 73.483C137.948 73.931 137.196 74.155 136.204 74.155C134.924 74.155 133.932 73.707 133.228 72.811C132.524 71.883 132.172 70.715 132.172 69.307C132.172 68.507 132.252 67.707 132.412 66.907C132.604 66.075 132.796 65.307 132.988 64.603C133.116 64.059 133.228 63.531 133.324 63.019C133.452 62.475 133.516 61.995 133.516 61.579C133.516 60.107 132.748 59.371 131.212 59.371C129.9 59.371 128.748 59.867 127.756 60.859C126.764 61.819 125.916 63.035 125.212 64.507C124.508 65.979 123.932 67.467 123.484 68.971V70.123C123.484 71.307 123.148 72.283 122.476 73.051C121.836 73.819 120.956 74.203 119.836 74.203Z" fill="#02421F"/>
<path d="M146.482 49.819C145.586 49.787 144.866 49.515 144.322 49.003C143.778 48.491 143.522 47.771 143.554 46.843C143.586 45.851 143.922 45.051 144.562 44.443C145.202 43.803 146.018 43.499 147.01 43.531C147.938 43.563 148.658 43.835 149.17 44.347C149.682 44.859 149.922 45.579 149.89 46.507C149.858 47.467 149.538 48.267 148.93 48.907C148.322 49.515 147.506 49.819 146.482 49.819ZM139.33 86.923C138.082 86.923 137.01 86.587 136.114 85.915C135.186 85.243 134.722 84.299 134.722 83.083C134.722 82.123 134.978 81.371 135.49 80.827C135.97 80.283 136.482 80.011 137.026 80.011C137.41 80.011 137.778 80.171 138.13 80.491C138.418 80.779 138.754 81.003 139.138 81.163C139.49 81.323 139.938 81.403 140.482 81.403C141.666 81.403 142.53 81.003 143.074 80.203C143.65 79.435 144.05 78.443 144.274 77.227C144.69 75.179 144.946 73.259 145.042 71.467C145.138 69.675 145.186 67.771 145.186 65.755C145.186 63.739 145.106 62.203 144.946 61.147C144.818 60.059 144.386 59.339 143.65 58.987C143.17 58.731 142.818 58.507 142.594 58.315C142.37 58.123 142.258 57.867 142.258 57.547C142.258 57.067 142.466 56.571 142.882 56.059C143.33 55.547 143.906 55.115 144.61 54.763C145.314 54.411 146.066 54.235 146.866 54.235C147.794 54.235 148.45 54.475 148.834 54.955C149.25 55.435 149.506 56.043 149.602 56.779C149.73 57.515 149.778 58.299 149.746 59.131C149.714 62.555 149.538 65.819 149.218 68.923C148.93 71.995 148.37 74.891 147.538 77.611C146.706 80.523 145.618 82.795 144.274 84.427C142.962 86.091 141.314 86.923 139.33 86.923Z" fill="#02421F"/>
<path d="M161.903 74.299C159.471 74.299 157.567 73.611 156.191 72.235C154.847 70.827 154.175 68.875 154.175 66.379C154.175 64.107 154.671 62.043 155.663 60.187C156.655 58.331 157.983 56.859 159.647 55.771C161.343 54.651 163.199 54.091 165.215 54.091C167.135 54.091 168.671 54.571 169.823 55.531C170.975 56.459 171.551 57.707 171.551 59.275C171.551 60.523 171.167 61.675 170.399 62.731C169.631 63.787 168.607 64.635 167.327 65.275C166.047 65.883 164.623 66.187 163.055 66.187C161.135 66.187 159.567 65.755 158.351 64.891C158.383 66.363 158.879 67.547 159.839 68.443C160.831 69.339 162.095 69.787 163.631 69.787C164.559 69.787 165.503 69.627 166.463 69.307C167.455 68.955 168.303 68.491 169.007 67.915C169.455 67.531 169.871 67.339 170.255 67.339C170.575 67.339 170.831 67.451 171.023 67.675C171.247 67.867 171.359 68.123 171.359 68.443C171.359 69.147 170.751 70.075 169.535 71.227C167.391 73.275 164.847 74.299 161.903 74.299ZM162.623 63.019C163.775 63.019 164.735 62.779 165.503 62.299C166.271 61.819 166.655 61.211 166.655 60.475C166.655 59.867 166.399 59.403 165.887 59.083C165.375 58.731 164.671 58.555 163.775 58.555C162.591 58.555 161.551 58.875 160.655 59.515C159.791 60.123 159.167 60.987 158.783 62.107C159.231 62.395 159.807 62.619 160.511 62.779C161.215 62.939 161.919 63.019 162.623 63.019Z" fill="#02421F"/>
<path d="M182.575 74.299C180.143 74.299 178.239 73.611 176.863 72.235C175.519 70.827 174.847 68.875 174.847 66.379C174.847 64.107 175.343 62.043 176.335 60.187C177.327 58.331 178.655 56.859 180.319 55.771C182.015 54.651 183.871 54.091 185.887 54.091C187.807 54.091 189.343 54.571 190.495 55.531C191.647 56.459 192.223 57.707 192.223 59.275C192.223 60.523 191.839 61.675 191.071 62.731C190.303 63.787 189.279 64.635 187.999 65.275C186.719 65.883 185.295 66.187 183.727 66.187C181.807 66.187 180.239 65.755 179.023 64.891C179.055 66.363 179.551 67.547 180.511 68.443C181.503 69.339 182.767 69.787 184.303 69.787C185.231 69.787 186.175 69.627 187.135 69.307C188.127 68.955 188.975 68.491 189.679 67.915C190.127 67.531 190.543 67.339 190.927 67.339C191.247 67.339 191.503 67.451 191.695 67.675C191.919 67.867 192.031 68.123 192.031 68.443C192.031 69.147 191.423 70.075 190.207 71.227C188.063 73.275 185.519 74.299 182.575 74.299ZM183.295 63.019C184.447 63.019 185.407 62.779 186.175 62.299C186.943 61.819 187.327 61.211 187.327 60.475C187.327 59.867 187.071 59.403 186.559 59.083C186.047 58.731 185.343 58.555 184.447 58.555C183.263 58.555 182.223 58.875 181.327 59.515C180.463 60.123 179.839 60.987 179.455 62.107C179.903 62.395 180.479 62.619 181.183 62.779C181.887 62.939 182.591 63.019 183.295 63.019Z" fill="#02421F"/>
<path d="M202.666 74.347C201.802 74.347 201.05 74.091 200.41 73.579C199.802 73.035 199.434 72.043 199.306 70.603C199.242 69.515 199.098 68.315 198.874 67.003C198.682 65.691 198.426 64.443 198.106 63.259C197.786 62.075 197.418 61.147 197.002 60.475C196.778 60.123 196.522 59.867 196.234 59.707C195.978 59.515 195.578 59.387 195.034 59.323C194.682 59.291 194.442 59.179 194.314 58.987C194.186 58.795 194.122 58.491 194.122 58.075C194.122 56.763 194.474 55.803 195.178 55.195C195.914 54.555 196.746 54.235 197.674 54.235C198.634 54.235 199.434 54.555 200.074 55.195C200.714 55.803 201.21 56.619 201.562 57.643C201.914 58.667 202.154 59.803 202.282 61.051C202.442 62.267 202.522 63.499 202.522 64.747C202.522 65.259 202.506 65.803 202.474 66.379C202.474 66.923 202.474 67.387 202.474 67.771C202.474 68.123 202.538 68.395 202.666 68.587C202.826 68.779 203.114 68.875 203.53 68.875C204.042 68.875 204.634 68.731 205.306 68.443C205.978 68.123 206.634 67.675 207.274 67.099C207.946 66.523 208.49 65.851 208.906 65.083C209.354 64.283 209.578 63.403 209.578 62.443C209.578 61.899 209.482 61.323 209.29 60.715C209.13 60.107 208.858 59.595 208.474 59.179C208.09 58.763 207.802 58.443 207.61 58.219C207.45 57.963 207.37 57.675 207.37 57.355C207.37 56.779 207.626 56.251 208.138 55.771C208.682 55.291 209.306 54.907 210.01 54.619C210.746 54.331 211.386 54.187 211.93 54.187C212.858 54.187 213.45 54.571 213.706 55.339C213.962 56.107 214.09 56.955 214.09 57.883C214.09 59.643 213.77 61.483 213.13 63.403C212.49 65.323 211.626 67.115 210.538 68.779C209.45 70.443 208.218 71.787 206.842 72.811C205.498 73.835 204.106 74.347 202.666 74.347Z" fill="#02421F"/>
<path d="M220.055 74.203C218.903 74.203 218.391 73.819 218.519 73.051C218.871 71.675 219.159 70.283 219.383 68.875C219.639 67.435 219.767 66.059 219.767 64.747C219.767 63.051 219.655 61.819 219.431 61.051C219.239 60.251 218.967 59.707 218.615 59.419C218.263 59.099 217.831 58.859 217.319 58.699C217.095 58.603 216.887 58.475 216.695 58.315C216.535 58.155 216.455 57.931 216.455 57.643C216.455 57.195 216.631 56.699 216.983 56.155C217.335 55.611 217.831 55.147 218.471 54.763C219.143 54.347 219.895 54.139 220.727 54.139C221.815 54.139 222.567 54.523 222.983 55.291C223.399 56.027 223.607 57.003 223.607 58.219C223.607 59.019 223.527 59.915 223.367 60.907C223.207 61.899 223.047 62.795 222.887 63.595L223.031 63.643C223.671 61.947 224.439 60.379 225.335 58.939C226.263 57.467 227.335 56.283 228.551 55.387C229.767 54.491 231.175 54.043 232.775 54.043C234.471 54.043 235.767 54.555 236.663 55.579C237.559 56.603 238.007 57.883 238.007 59.419C238.007 60.059 237.927 60.667 237.767 61.243C237.639 61.819 237.495 62.379 237.335 62.923C237.175 63.435 237.031 63.963 236.903 64.507C236.807 65.051 236.759 65.595 236.759 66.139C236.759 67.963 237.623 69.195 239.351 69.835C239.799 70.027 240.023 70.315 240.023 70.699C240.023 70.987 239.927 71.403 239.735 71.947C239.543 72.491 239.191 73.003 238.679 73.483C238.167 73.931 237.415 74.155 236.423 74.155C235.143 74.155 234.151 73.707 233.447 72.811C232.743 71.883 232.391 70.715 232.391 69.307C232.391 68.507 232.471 67.707 232.631 66.907C232.823 66.075 233.015 65.307 233.207 64.603C233.335 64.059 233.447 63.531 233.543 63.019C233.671 62.475 233.735 61.995 233.735 61.579C233.735 60.107 232.967 59.371 231.431 59.371C230.119 59.371 228.967 59.867 227.975 60.859C226.983 61.819 226.135 63.035 225.431 64.507C224.727 65.979 224.151 67.467 223.703 68.971V70.123C223.703 71.307 223.367 72.283 222.695 73.051C222.055 73.819 221.175 74.203 220.055 74.203Z" fill="#02421F"/>
<path d="M247.133 49.819C246.237 49.787 245.517 49.515 244.973 49.003C244.429 48.491 244.157 47.771 244.157 46.843C244.189 45.851 244.525 45.051 245.165 44.443C245.805 43.803 246.621 43.499 247.613 43.531C248.541 43.563 249.261 43.835 249.773 44.347C250.317 44.859 250.573 45.579 250.541 46.507C250.509 47.467 250.189 48.267 249.581 48.907C248.973 49.515 248.157 49.819 247.133 49.819ZM247.181 74.155C246.221 74.155 245.469 73.899 244.925 73.387C244.381 72.843 244.109 71.931 244.109 70.651C244.109 69.915 244.173 69.195 244.301 68.491C244.461 67.787 244.637 67.099 244.829 66.427C245.053 65.723 245.229 65.003 245.357 64.267C245.517 63.531 245.597 62.747 245.597 61.915C245.597 61.339 245.517 60.795 245.357 60.283C245.197 59.739 244.845 59.339 244.301 59.083C243.885 58.859 243.517 58.635 243.197 58.411C242.909 58.155 242.765 57.835 242.765 57.451C242.765 57.003 242.973 56.523 243.389 56.011C243.805 55.499 244.349 55.067 245.021 54.715C245.725 54.331 246.445 54.139 247.181 54.139C247.981 54.139 248.557 54.347 248.909 54.763C249.293 55.179 249.549 55.707 249.677 56.347C249.805 56.987 249.869 57.643 249.869 58.315C249.869 59.339 249.789 60.347 249.629 61.339C249.469 62.299 249.309 63.195 249.149 64.027C249.021 64.635 248.925 65.195 248.861 65.707C248.797 66.219 248.765 66.699 248.765 67.147C248.765 67.947 248.957 68.555 249.341 68.971C249.725 69.355 250.269 69.723 250.973 70.075C251.261 70.235 251.405 70.475 251.405 70.795C251.405 71.051 251.277 71.451 251.021 71.995C250.765 72.539 250.317 73.035 249.677 73.483C249.069 73.931 248.237 74.155 247.181 74.155Z" fill="#02421F"/>
</svg>
